<svg width="166" height="55" viewBox="0 0 166 55" fill="none" xmlns="http://www.w3.org/2000/svg">
<path d="M8.68802 18.36C7.72802 18.36 6.75202 17.936 5.76002 17.088L5.56802 18.048H2.11202L5.37602 2.784L8.92802 2.304L6.04802 15.768C6.49602 16.088 6.95202 16.248 7.41602 16.248C8.32802 16.248 9.12802 15.72 9.81602 14.664C10.52 13.608 11.064 12.264 11.448 10.632C11.832 9 12.024 7.352 12.024 5.688C12.024 4.12 11.712 2.976 11.088 2.256C10.48 1.52 9.62402 1.152 8.52002 1.152C7.32002 1.152 6.24002 1.392 5.28002 1.872C4.33602 2.336 3.59202 3.008 3.04802 3.888C2.50402 4.768 2.23202 5.8 2.23202 6.984C2.23202 7.576 2.28802 7.992 2.40002 8.232C2.51202 8.456 2.56802 8.584 2.56802 8.616C1.73602 8.616 1.09602 8.44 0.648018 8.088C0.216018 7.736 1.80677e-05 7.168 1.80677e-05 6.384C1.80677e-05 5.296 0.408018 4.264 1.22402 3.288C2.04002 2.312 3.12802 1.528 4.48802 0.936003C5.86402 0.344003 7.34402 0.0480027 8.92802 0.0480027C11.12 0.0480027 12.736 0.696003 13.776 1.992C14.816 3.288 15.336 4.944 15.336 6.96C15.336 8.784 15.024 10.584 14.4 12.36C13.792 14.12 12.976 15.56 11.952 16.68C10.928 17.8 9.84002 18.36 8.68802 18.36ZM19.2741 18.144C18.0901 18.144 17.1541 17.84 16.4661 17.232C15.7781 16.624 15.4341 15.664 15.4341 14.352C15.4341 13.264 15.6581 12.056 16.1061 10.728C16.5541 9.4 17.2741 8.256 18.2661 7.296C19.2581 6.32 20.5061 5.832 22.0101 5.832C24.0581 5.832 25.0821 7.112 25.0821 9.672V9.696C25.1301 9.712 25.2181 9.72 25.3461 9.72C25.8741 9.72 26.4821 9.584 27.1701 9.312C27.8581 9.024 28.4821 8.68 29.0421 8.28L29.2581 8.928C28.7941 9.424 28.1861 9.848 27.4341 10.2C26.6981 10.536 25.8901 10.776 25.0101 10.92C24.8821 12.376 24.5541 13.648 24.0261 14.736C23.4981 15.824 22.8181 16.664 21.9861 17.256C21.1541 17.848 20.2501 18.144 19.2741 18.144ZM20.2341 15.984C20.6181 15.984 21.0021 15.768 21.3861 15.336C21.7701 14.888 22.1061 14.288 22.3941 13.536C22.6821 12.768 22.8901 11.92 23.0181 10.992C22.5861 10.896 22.3701 10.56 22.3701 9.984C22.3701 9.328 22.6181 8.896 23.1141 8.688C23.0821 8.16 23.0021 7.8 22.8741 7.608C22.7461 7.4 22.5221 7.296 22.2021 7.296C21.6741 7.296 21.1621 7.68 20.6661 8.448C20.1701 9.216 19.7701 10.136 19.4661 11.208C19.1621 12.28 19.0101 13.224 19.0101 14.04C19.0101 14.808 19.0981 15.328 19.2741 15.6C19.4501 15.856 19.7701 15.984 20.2341 15.984ZM34.573 18.192C33.725 18.192 33.109 17.936 32.725 17.424C32.341 16.912 32.149 16.264 32.149 15.48C32.149 15.144 32.189 14.768 32.269 14.352C32.349 13.92 32.429 13.504 32.509 13.104C32.605 12.704 32.669 12.448 32.701 12.336C32.829 11.776 32.949 11.224 33.061 10.68C33.173 10.136 33.229 9.696 33.229 9.36C33.229 8.544 32.941 8.136 32.365 8.136C31.949 8.136 31.581 8.344 31.261 8.76C30.941 9.16 30.685 9.688 30.493 10.344L28.861 18.048H25.405L27.949 6.048H31.405L31.141 7.296C31.941 6.4 32.877 5.952 33.949 5.952C34.765 5.952 35.413 6.176 35.893 6.624C36.373 7.072 36.613 7.752 36.613 8.664C36.613 9.128 36.557 9.648 36.445 10.224C36.333 10.784 36.173 11.472 35.965 12.288C35.837 12.784 35.717 13.272 35.605 13.752C35.509 14.216 35.461 14.584 35.461 14.856C35.461 15.176 35.533 15.424 35.677 15.6C35.821 15.776 36.069 15.864 36.421 15.864C36.805 15.864 37.069 15.816 37.213 15.72C37.117 16.536 36.821 17.152 36.325 17.568C35.845 17.984 35.261 18.192 34.573 18.192ZM39.5194 5.352C39.8554 5 40.1194 4.672 40.3114 4.368C40.5034 4.064 40.5994 3.816 40.5994 3.624C40.5994 3.512 40.5594 3.408 40.4794 3.312C40.4154 3.216 40.3114 3.112 40.1674 3C39.9434 2.824 39.7674 2.64 39.6394 2.448C39.5114 2.256 39.4474 2 39.4474 1.68C39.4474 1.184 39.5994 0.784003 39.9034 0.480003C40.2074 0.160003 40.5914 3.33786e-06 41.0554 3.33786e-06C41.5514 3.33786e-06 41.9514 0.160003 42.2554 0.480003C42.5754 0.784003 42.7354 1.184 42.7354 1.68C42.7354 2.304 42.4714 2.992 41.9434 3.744C41.4314 4.48 40.7434 5.136 39.8794 5.712L39.5194 5.352ZM45.1901 18.192C44.3741 18.192 43.7661 17.944 43.3661 17.448C42.9821 16.952 42.7901 16.296 42.7901 15.48C42.7901 15.064 42.8381 14.64 42.9341 14.208L44.4701 7.008H43.6781L43.8701 6.048H44.6621L45.3821 2.736L48.9341 2.256C48.7901 2.864 48.7101 3.224 48.6941 3.336C48.5821 3.784 48.3901 4.688 48.1181 6.048H49.5581L49.3661 7.008H47.9261L46.3901 14.208C46.3101 14.56 46.2701 14.84 46.2701 15.048C46.2701 15.624 46.5501 15.912 47.1101 15.912C47.3981 15.912 47.6061 15.888 47.7341 15.84C47.4141 16.768 47.0381 17.392 46.6061 17.712C46.1741 18.032 45.7021 18.192 45.1901 18.192ZM52.6101 24.048C51.8581 24.048 51.2021 23.8 50.6421 23.304C50.0661 22.824 49.7781 22.208 49.7781 21.456C49.7781 20.768 49.9541 20.2 50.3061 19.752C50.6581 19.304 51.1141 18.944 51.6741 18.672C52.2341 18.416 52.9781 18.144 53.9061 17.856L56.8101 4.152C57.1301 2.616 57.6901 1.552 58.4901 0.960004C59.3061 0.368004 60.2021 0.0720038 61.1781 0.0720038C61.9301 0.0720038 62.5861 0.320004 63.1461 0.816003C63.7221 1.296 64.0101 1.912 64.0101 2.664C64.0101 3.032 63.9861 3.36 63.9381 3.648H62.8101C62.8421 3.296 62.8581 3.08 62.8581 3C62.8581 2.744 62.7701 2.544 62.5941 2.4C62.4181 2.256 62.2021 2.184 61.9461 2.184C61.6101 2.184 61.2821 2.336 60.9621 2.64C60.6421 2.928 60.4101 3.432 60.2661 4.152L59.8581 6.048H61.6101L61.4421 7.008H59.6661L56.9061 19.968C56.5861 21.52 56.0341 22.584 55.2501 23.16C54.4661 23.752 53.5861 24.048 52.6101 24.048ZM52.0581 21.912C52.6981 21.912 53.1541 21.288 53.4261 20.04L53.7381 18.648C52.8901 18.936 52.2421 19.264 51.7941 19.632C51.3301 20.016 51.0981 20.512 51.0981 21.12C51.0981 21.312 51.1941 21.488 51.3861 21.648C51.5781 21.824 51.8021 21.912 52.0581 21.912ZM64.6725 18.144C63.4885 18.144 62.5525 17.84 61.8645 17.232C61.1765 16.624 60.8325 15.664 60.8325 14.352C60.8325 13.264 61.0565 12.056 61.5045 10.728C61.9525 9.4 62.6725 8.256 63.6645 7.296C64.6565 6.32 65.9045 5.832 67.4085 5.832C69.4565 5.832 70.4805 7.112 70.4805 9.672V9.696C70.5285 9.712 70.6165 9.72 70.7445 9.72C71.2725 9.72 71.8805 9.584 72.5685 9.312C73.2565 9.024 73.8805 8.68 74.4405 8.28L74.6565 8.928C74.1925 9.424 73.5845 9.848 72.8325 10.2C72.0965 10.536 71.2885 10.776 70.4085 10.92C70.2805 12.376 69.9525 13.648 69.4245 14.736C68.8965 15.824 68.2165 16.664 67.3845 17.256C66.5525 17.848 65.6485 18.144 64.6725 18.144ZM65.6325 15.984C66.0165 15.984 66.4005 15.768 66.7845 15.336C67.1685 14.888 67.5045 14.288 67.7925 13.536C68.0805 12.768 68.2885 11.92 68.4165 10.992C67.9845 10.896 67.7685 10.56 67.7685 9.984C67.7685 9.328 68.0165 8.896 68.5125 8.688C68.4805 8.16 68.4005 7.8 68.2725 7.608C68.1445 7.4 67.9205 7.296 67.6005 7.296C67.0725 7.296 66.5605 7.68 66.0645 8.448C65.5685 9.216 65.1685 10.136 64.8645 11.208C64.5605 12.28 64.4085 13.224 64.4085 14.04C64.4085 14.808 64.4965 15.328 64.6725 15.6C64.8485 15.856 65.1685 15.984 65.6325 15.984ZM73.3474 6.048H76.8034L76.4914 7.536C77.0354 7.056 77.5234 6.688 77.9554 6.432C78.4034 6.176 78.8834 6.048 79.3954 6.048C79.9074 6.048 80.3074 6.224 80.5954 6.576C80.8994 6.928 81.0514 7.352 81.0514 7.848C81.0514 8.312 80.8994 8.72 80.5954 9.072C80.2914 9.424 79.8674 9.6 79.3234 9.6C78.9714 9.6 78.7314 9.52 78.6034 9.36C78.4914 9.184 78.4034 8.936 78.3394 8.616C78.2914 8.408 78.2434 8.256 78.1954 8.16C78.1474 8.064 78.0594 8.016 77.9314 8.016C77.5954 8.016 77.3074 8.088 77.0674 8.232C76.8434 8.36 76.5474 8.592 76.1794 8.928L74.2594 18.048H70.8034L73.3474 6.048ZM84.9868 24.048C84.2188 24.048 83.5788 23.848 83.0668 23.448C82.5548 23.048 82.2988 22.472 82.2988 21.72C82.2988 20.808 82.6668 20.072 83.4028 19.512C84.1388 18.968 85.0748 18.512 86.2108 18.144L86.4988 16.872C85.6828 17.752 84.7228 18.192 83.6188 18.192C82.7068 18.192 81.9468 17.88 81.3388 17.256C80.7308 16.632 80.4268 15.656 80.4268 14.328C80.4268 13.144 80.6588 11.904 81.1228 10.608C81.6028 9.296 82.3068 8.192 83.2348 7.296C84.1788 6.384 85.2988 5.928 86.5948 5.928C87.2508 5.928 87.7388 6.04 88.0588 6.264C88.3788 6.488 88.5388 6.784 88.5388 7.152V7.296L88.8028 6.048H92.2588L89.8828 17.184C90.6508 16.928 91.2668 16.544 91.7308 16.032C92.1948 15.52 92.5868 14.76 92.9068 13.752H93.9148C93.4828 15.176 92.8988 16.224 92.1628 16.896C91.4268 17.552 90.5948 18 89.6668 18.24L89.3068 19.968C88.9868 21.52 88.4348 22.584 87.6508 23.16C86.8668 23.752 85.9788 24.048 84.9868 24.048ZM85.1788 15.864C85.5468 15.864 85.9228 15.696 86.3068 15.36C86.6908 15.024 86.9548 14.568 87.0988 13.992L88.3228 8.304C88.3228 8.112 88.2428 7.92 88.0828 7.728C87.9228 7.52 87.6748 7.416 87.3388 7.416C86.6988 7.416 86.1228 7.792 85.6108 8.544C85.0988 9.28 84.6988 10.176 84.4108 11.232C84.1228 12.272 83.9788 13.192 83.9788 13.992C83.9788 14.792 84.0908 15.304 84.3148 15.528C84.5548 15.752 84.8428 15.864 85.1788 15.864ZM84.4348 22.176C84.7068 22.176 84.9708 21.992 85.2268 21.624C85.4828 21.256 85.6828 20.728 85.8268 20.04L85.9708 19.344C84.4028 19.92 83.6188 20.6 83.6188 21.384C83.6188 21.592 83.6908 21.776 83.8348 21.936C83.9788 22.096 84.1788 22.176 84.4348 22.176ZM96.3349 18.192C95.1509 18.192 94.2309 17.888 93.5749 17.28C92.9189 16.656 92.5909 15.688 92.5909 14.376C92.5909 13.272 92.8069 12.056 93.2389 10.728C93.6709 9.4 94.3749 8.256 95.3509 7.296C96.3269 6.32 97.5669 5.832 99.0709 5.832C100.831 5.832 101.711 6.6 101.711 8.136C101.711 9.032 101.455 9.856 100.943 10.608C100.431 11.36 99.7509 11.968 98.9029 12.432C98.0549 12.88 97.1509 13.136 96.1909 13.2C96.1589 13.68 96.1429 14 96.1429 14.16C96.1429 14.944 96.2789 15.48 96.5509 15.768C96.8229 16.04 97.2629 16.176 97.8709 16.176C98.7349 16.176 99.4709 15.976 100.079 15.576C100.703 15.176 101.383 14.568 102.119 13.752H102.935C101.159 16.712 98.9589 18.192 96.3349 18.192ZM96.3829 12.048C96.9749 12.016 97.5349 11.808 98.0629 11.424C98.6069 11.04 99.0389 10.552 99.3589 9.96C99.6949 9.368 99.8629 8.744 99.8629 8.088C99.8629 7.432 99.6629 7.104 99.2629 7.104C98.6869 7.104 98.1189 7.608 97.5589 8.616C97.0149 9.624 96.6229 10.768 96.3829 12.048ZM104.37 18.192C103.554 18.192 102.946 17.944 102.546 17.448C102.162 16.952 101.97 16.296 101.97 15.48C101.97 15.064 102.018 14.64 102.114 14.208L103.65 7.008H102.858L103.05 6.048H103.842L104.562 2.736L108.114 2.256C107.97 2.864 107.89 3.224 107.874 3.336C107.762 3.784 107.57 4.688 107.298 6.048H108.738L108.546 7.008H107.106L105.57 14.208C105.49 14.56 105.45 14.84 105.45 15.048C105.45 15.624 105.73 15.912 106.29 15.912C106.578 15.912 106.786 15.888 106.914 15.84C106.594 16.768 106.218 17.392 105.786 17.712C105.354 18.032 104.882 18.192 104.37 18.192ZM116.326 18.192C115.558 18.192 114.934 17.952 114.454 17.472C113.99 16.992 113.758 16.272 113.758 15.312C113.758 14.912 113.822 14.392 113.95 13.752L115.39 7.008H114.598L114.79 6.048H115.582L116.302 2.736L119.854 2.256L119.038 6.048H120.478L120.286 7.008H118.846L117.31 14.208C117.246 14.448 117.214 14.704 117.214 14.976C117.214 15.296 117.286 15.528 117.43 15.672C117.59 15.8 117.846 15.864 118.198 15.864C118.662 15.864 119.094 15.672 119.494 15.288C119.894 14.888 120.182 14.376 120.358 13.752H121.366C120.774 15.48 120.014 16.656 119.086 17.28C118.158 17.888 117.238 18.192 116.326 18.192ZM123.852 18.144C122.668 18.144 121.732 17.84 121.044 17.232C120.356 16.624 120.012 15.664 120.012 14.352C120.012 13.248 120.228 12.04 120.66 10.728C121.092 9.4 121.796 8.256 122.772 7.296C123.748 6.32 124.996 5.832 126.516 5.832C128.404 5.832 129.42 6.912 129.564 9.072C129.916 8.992 130.228 8.8 130.5 8.496C130.772 8.176 131.028 7.816 131.268 7.416H132.036C131.604 8.28 131.22 8.96 130.884 9.456C130.548 9.936 130.108 10.328 129.564 10.632C129.468 12.136 129.156 13.456 128.628 14.592C128.116 15.728 127.444 16.608 126.612 17.232C125.78 17.84 124.86 18.144 123.852 18.144ZM124.812 15.984C125.404 15.984 125.956 15.504 126.468 14.544C126.98 13.584 127.332 12.4 127.524 10.992C127.14 10.848 126.948 10.488 126.948 9.912C126.948 9.288 127.172 8.872 127.62 8.664C127.588 8.152 127.5 7.8 127.356 7.608C127.228 7.4 127.012 7.296 126.708 7.296C126.18 7.296 125.676 7.68 125.196 8.448C124.716 9.2 124.324 10.12 124.02 11.208C123.732 12.28 123.588 13.224 123.588 14.04C123.588 14.808 123.676 15.328 123.852 15.6C124.028 15.856 124.348 15.984 124.812 15.984ZM140.679 18.192C139.495 18.192 138.575 17.888 137.919 17.28C137.263 16.656 136.935 15.688 136.935 14.376C136.935 13.272 137.151 12.056 137.583 10.728C138.015 9.4 138.719 8.256 139.695 7.296C140.671 6.32 141.911 5.832 143.415 5.832C145.175 5.832 146.055 6.6 146.055 8.136C146.055 9.032 145.799 9.856 145.287 10.608C144.775 11.36 144.095 11.968 143.247 12.432C142.399 12.88 141.495 13.136 140.535 13.2C140.503 13.68 140.487 14 140.487 14.16C140.487 14.944 140.623 15.48 140.895 15.768C141.167 16.04 141.607 16.176 142.215 16.176C143.079 16.176 143.815 15.976 144.423 15.576C145.047 15.176 145.727 14.568 146.463 13.752H147.279C145.503 16.712 143.303 18.192 140.679 18.192ZM140.727 12.048C141.319 12.016 141.879 11.808 142.407 11.424C142.951 11.04 143.383 10.552 143.703 9.96C144.039 9.368 144.207 8.744 144.207 8.088C144.207 7.432 144.007 7.104 143.607 7.104C143.031 7.104 142.463 7.608 141.903 8.616C141.359 9.624 140.967 10.768 140.727 12.048ZM149.338 18.192C148.426 18.192 147.666 17.88 147.058 17.256C146.45 16.632 146.146 15.656 146.146 14.328C146.146 13.144 146.378 11.904 146.842 10.608C147.322 9.296 148.026 8.192 148.954 7.296C149.898 6.384 151.018 5.928 152.314 5.928C152.97 5.928 153.458 6.04 153.778 6.264C154.098 6.488 154.258 6.784 154.258 7.152V7.32L154.522 6.048H157.978L156.25 14.208C156.186 14.448 156.154 14.704 156.154 14.976C156.154 15.664 156.482 16.008 157.138 16.008C157.586 16.008 157.97 15.8 158.29 15.384C158.626 14.968 158.89 14.424 159.082 13.752H160.09C159.498 15.48 158.762 16.656 157.882 17.28C157.018 17.888 156.146 18.192 155.266 18.192C154.594 18.192 154.05 18.008 153.634 17.64C153.234 17.256 152.994 16.704 152.914 15.984C152.45 16.64 151.93 17.176 151.354 17.592C150.794 17.992 150.122 18.192 149.338 18.192ZM150.898 15.864C151.298 15.864 151.69 15.68 152.074 15.312C152.474 14.928 152.746 14.408 152.89 13.752L154.042 8.328C154.042 8.12 153.962 7.92 153.802 7.728C153.642 7.52 153.394 7.416 153.058 7.416C152.418 7.416 151.842 7.792 151.33 8.544C150.818 9.28 150.418 10.176 150.13 11.232C149.842 12.272 149.698 13.192 149.698 13.992C149.698 14.792 149.81 15.304 150.034 15.528C150.274 15.752 150.562 15.864 150.898 15.864ZM161.346 18.192C160.53 18.192 159.922 17.944 159.522 17.448C159.138 16.952 158.946 16.296 158.946 15.48C158.946 15.064 158.994 14.64 159.09 14.208L160.626 7.008H159.834L160.026 6.048H160.818L161.538 2.736L165.09 2.256C164.946 2.864 164.866 3.224 164.85 3.336C164.738 3.784 164.546 4.688 164.274 6.048H165.714L165.522 7.008H164.082L162.546 14.208C162.466 14.56 162.426 14.84 162.426 15.048C162.426 15.624 162.706 15.912 163.266 15.912C163.554 15.912 163.762 15.888 163.89 15.84C163.57 16.768 163.194 17.392 162.762 17.712C162.33 18.032 161.858 18.192 161.346 18.192ZM37.0435 48.192C36.0675 48.192 35.3475 47.936 34.8835 47.424C34.4355 46.896 34.2115 46.248 34.2115 45.48C34.2115 45.144 34.2515 44.768 34.3315 44.352C34.4115 43.92 34.4915 43.504 34.5715 43.104C34.6675 42.704 34.7315 42.448 34.7635 42.336C34.8915 41.776 35.0115 41.224 35.1235 40.68C35.2355 40.136 35.2915 39.696 35.2915 39.36C35.2915 38.544 35.0035 38.136 34.4275 38.136C34.0115 38.136 33.6435 38.344 33.3235 38.76C33.0035 39.16 32.7475 39.688 32.5555 40.344L30.9235 48.048H27.4675L30.9475 31.728L34.4995 31.248L33.2035 37.296C34.0035 36.4 34.9395 35.952 36.0115 35.952C36.8275 35.952 37.4755 36.176 37.9555 36.624C38.4355 37.072 38.6755 37.752 38.6755 38.664C38.6755 39.128 38.6195 39.648 38.5075 40.224C38.3955 40.784 38.2355 41.472 38.0275 42.288C37.8995 42.784 37.7795 43.272 37.6675 43.752C37.5715 44.216 37.5235 44.584 37.5235 44.856C37.5235 45.176 37.5955 45.424 37.7395 45.6C37.8835 45.776 38.1315 45.864 38.4835 45.864C38.9635 45.864 39.3475 45.696 39.6355 45.36C39.9235 45.008 40.2115 44.472 40.4995 43.752H41.5075C40.9155 45.512 40.2275 46.696 39.4435 47.304C38.6755 47.896 37.8755 48.192 37.0435 48.192ZM43.9286 48.192C42.7446 48.192 41.8246 47.888 41.1686 47.28C40.5126 46.656 40.1846 45.688 40.1846 44.376C40.1846 43.272 40.4006 42.056 40.8326 40.728C41.2646 39.4 41.9686 38.256 42.9446 37.296C43.9206 36.32 45.1606 35.832 46.6646 35.832C48.4246 35.832 49.3046 36.6 49.3046 38.136C49.3046 39.032 49.0486 39.856 48.5366 40.608C48.0246 41.36 47.3446 41.968 46.4966 42.432C45.6486 42.88 44.7446 43.136 43.7846 43.2C43.7526 43.68 43.7366 44 43.7366 44.16C43.7366 44.944 43.8726 45.48 44.1446 45.768C44.4166 46.04 44.8566 46.176 45.4646 46.176C46.3286 46.176 47.0646 45.976 47.6726 45.576C48.2966 45.176 48.9766 44.568 49.7126 43.752H50.5286C48.7526 46.712 46.5526 48.192 43.9286 48.192ZM43.9766 42.048C44.5686 42.016 45.1286 41.808 45.6566 41.424C46.2006 41.04 46.6326 40.552 46.9526 39.96C47.2886 39.368 47.4566 38.744 47.4566 38.088C47.4566 37.432 47.2566 37.104 46.8566 37.104C46.2806 37.104 45.7126 37.608 45.1526 38.616C44.6086 39.624 44.2166 40.768 43.9766 42.048ZM52.5876 48.192C51.6756 48.192 50.9156 47.88 50.3076 47.256C49.6996 46.632 49.3956 45.656 49.3956 44.328C49.3956 43.144 49.6276 41.904 50.0916 40.608C50.5716 39.296 51.2756 38.192 52.2036 37.296C53.1476 36.384 54.2676 35.928 55.5636 35.928C56.2196 35.928 56.7076 36.04 57.0276 36.264C57.3476 36.488 57.5076 36.784 57.5076 37.152V37.32L57.7716 36.048H61.2276L59.4996 44.208C59.4356 44.448 59.4036 44.704 59.4036 44.976C59.4036 45.664 59.7316 46.008 60.3876 46.008C60.8356 46.008 61.2196 45.8 61.5396 45.384C61.8756 44.968 62.1396 44.424 62.3316 43.752H63.3396C62.7476 45.48 62.0116 46.656 61.1316 47.28C60.2676 47.888 59.3956 48.192 58.5156 48.192C57.8436 48.192 57.2996 48.008 56.8836 47.64C56.4836 47.256 56.2436 46.704 56.1636 45.984C55.6996 46.64 55.1796 47.176 54.6036 47.592C54.0436 47.992 53.3716 48.192 52.5876 48.192ZM54.1476 45.864C54.5476 45.864 54.9396 45.68 55.3236 45.312C55.7236 44.928 55.9956 44.408 56.1396 43.752L57.2916 38.328C57.2916 38.12 57.2116 37.92 57.0516 37.728C56.8916 37.52 56.6436 37.416 56.3076 37.416C55.6676 37.416 55.0916 37.792 54.5796 38.544C54.0676 39.28 53.6676 40.176 53.3796 41.232C53.0916 42.272 52.9476 43.192 52.9476 43.992C52.9476 44.792 53.0596 45.304 53.2836 45.528C53.5236 45.752 53.8116 45.864 54.1476 45.864ZM64.7164 48.192C63.9484 48.192 63.3244 47.952 62.8444 47.472C62.3804 46.992 62.1484 46.272 62.1484 45.312C62.1484 44.912 62.2124 44.392 62.3404 43.752L64.9084 31.728L68.4604 31.248L65.7004 44.208C65.6364 44.448 65.6044 44.704 65.6044 44.976C65.6044 45.296 65.6764 45.528 65.8204 45.672C65.9804 45.8 66.2364 45.864 66.5884 45.864C67.0524 45.864 67.4844 45.672 67.8844 45.288C68.2844 44.888 68.5724 44.376 68.7484 43.752H69.7564C69.1644 45.48 68.4044 46.656 67.4764 47.28C66.5484 47.888 65.6284 48.192 64.7164 48.192ZM71.1148 48.192C70.3468 48.192 69.7228 47.952 69.2428 47.472C68.7788 46.992 68.5468 46.272 68.5468 45.312C68.5468 44.912 68.6108 44.392 68.7388 43.752L70.1788 37.008H69.3868L69.5788 36.048H70.3708L71.0908 32.736L74.6428 32.256L73.8268 36.048H75.2668L75.0748 37.008H73.6348L72.0988 44.208C72.0348 44.448 72.0028 44.704 72.0028 44.976C72.0028 45.296 72.0748 45.528 72.2188 45.672C72.3788 45.8 72.6348 45.864 72.9868 45.864C73.4508 45.864 73.8828 45.672 74.2828 45.288C74.6828 44.888 74.9708 44.376 75.1468 43.752H76.1548C75.5628 45.48 74.8028 46.656 73.8748 47.28C72.9468 47.888 72.0268 48.192 71.1148 48.192ZM83.8013 48.192C82.8253 48.192 82.1053 47.936 81.6413 47.424C81.1933 46.896 80.9693 46.248 80.9693 45.48C80.9693 45.144 81.0093 44.768 81.0893 44.352C81.1693 43.92 81.2493 43.504 81.3293 43.104C81.4253 42.704 81.4893 42.448 81.5213 42.336C81.6493 41.776 81.7693 41.224 81.8813 40.68C81.9933 40.136 82.0493 39.696 82.0493 39.36C82.0493 38.544 81.7613 38.136 81.1853 38.136C80.7693 38.136 80.4013 38.344 80.0813 38.76C79.7613 39.16 79.5053 39.688 79.3133 40.344L77.6813 48.048H74.2253L77.7053 31.728L81.2573 31.248L79.9613 37.296C80.7613 36.4 81.6973 35.952 82.7693 35.952C83.5853 35.952 84.2333 36.176 84.7133 36.624C85.1933 37.072 85.4333 37.752 85.4333 38.664C85.4333 39.128 85.3773 39.648 85.2653 40.224C85.1533 40.784 84.9933 41.472 84.7853 42.288C84.6573 42.784 84.5373 43.272 84.4253 43.752C84.3293 44.216 84.2813 44.584 84.2813 44.856C84.2813 45.176 84.3533 45.424 84.4973 45.6C84.6413 45.776 84.8893 45.864 85.2413 45.864C85.7213 45.864 86.1053 45.696 86.3933 45.36C86.6813 45.008 86.9693 44.472 87.2573 43.752H88.2653C87.6733 45.512 86.9853 46.696 86.2013 47.304C85.4333 47.896 84.6333 48.192 83.8013 48.192ZM90.9985 54.048C90.2465 54.048 89.5825 53.8 89.0065 53.304C88.4465 52.824 88.1665 52.208 88.1665 51.456C88.1665 50.752 88.3425 50.176 88.6945 49.728C89.0465 49.28 89.5025 48.928 90.0625 48.672C90.6225 48.416 91.3745 48.144 92.3185 47.856L92.5585 46.8C91.7425 47.728 90.7665 48.192 89.6305 48.192C88.8625 48.192 88.2385 47.952 87.7585 47.472C87.2945 46.992 87.0625 46.272 87.0625 45.312C87.0625 44.912 87.1265 44.392 87.2545 43.752L88.8865 36.048H92.3425L90.6145 44.208C90.5665 44.4 90.5425 44.6 90.5425 44.808C90.5425 45.512 90.7825 45.864 91.2625 45.864C91.7105 45.864 92.0945 45.68 92.4145 45.312C92.7345 44.928 92.9905 44.408 93.1825 43.752L94.8145 36.048H98.2945L95.3665 49.968C95.0465 51.504 94.4785 52.568 93.6625 53.16C92.8625 53.752 91.9745 54.048 90.9985 54.048ZM90.4465 51.912C90.7345 51.912 91.0065 51.76 91.2625 51.456C91.5185 51.168 91.7185 50.696 91.8625 50.04L92.1505 48.624C91.3025 48.912 90.6465 49.248 90.1825 49.632C89.7185 50.016 89.4865 50.512 89.4865 51.12C89.4865 51.312 89.5825 51.488 89.7745 51.648C89.9665 51.824 90.1905 51.912 90.4465 51.912ZM101.337 54.048C100.585 54.048 99.9286 53.8 99.3686 53.304C98.7926 52.824 98.5046 52.208 98.5046 51.456C98.5046 50.768 98.6806 50.2 99.0326 49.752C99.3846 49.304 99.8406 48.944 100.401 48.672C100.961 48.416 101.705 48.144 102.633 47.856L105.537 34.152C105.857 32.616 106.417 31.552 107.217 30.96C108.033 30.368 108.929 30.072 109.905 30.072C110.657 30.072 111.313 30.32 111.873 30.816C112.449 31.296 112.737 31.912 112.737 32.664C112.737 33.032 112.713 33.36 112.665 33.648H111.537C111.569 33.296 111.585 33.08 111.585 33C111.585 32.744 111.497 32.544 111.321 32.4C111.145 32.256 110.929 32.184 110.673 32.184C110.337 32.184 110.009 32.336 109.689 32.64C109.369 32.928 109.137 33.432 108.993 34.152L108.585 36.048H110.337L110.169 37.008H108.393L105.633 49.968C105.313 51.52 104.761 52.584 103.977 53.16C103.193 53.752 102.313 54.048 101.337 54.048ZM100.785 51.912C101.425 51.912 101.881 51.288 102.153 50.04L102.465 48.648C101.617 48.936 100.969 49.264 100.521 49.632C100.057 50.016 99.8246 50.512 99.8246 51.12C99.8246 51.312 99.9206 51.488 100.113 51.648C100.305 51.824 100.529 51.912 100.785 51.912ZM113.399 48.144C112.215 48.144 111.279 47.84 110.591 47.232C109.903 46.624 109.559 45.664 109.559 44.352C109.559 43.264 109.783 42.056 110.231 40.728C110.679 39.4 111.399 38.256 112.391 37.296C113.383 36.32 114.631 35.832 116.135 35.832C118.183 35.832 119.207 37.112 119.207 39.672V39.696C119.255 39.712 119.343 39.72 119.471 39.72C119.999 39.72 120.607 39.584 121.295 39.312C121.983 39.024 122.607 38.68 123.167 38.28L123.383 38.928C122.919 39.424 122.311 39.848 121.559 40.2C120.823 40.536 120.015 40.776 119.135 40.92C119.007 42.376 118.679 43.648 118.151 44.736C117.623 45.824 116.943 46.664 116.111 47.256C115.279 47.848 114.375 48.144 113.399 48.144ZM114.359 45.984C114.743 45.984 115.127 45.768 115.511 45.336C115.895 44.888 116.231 44.288 116.519 43.536C116.807 42.768 117.015 41.92 117.143 40.992C116.711 40.896 116.495 40.56 116.495 39.984C116.495 39.328 116.743 38.896 117.239 38.688C117.207 38.16 117.127 37.8 116.999 37.608C116.871 37.4 116.647 37.296 116.327 37.296C115.799 37.296 115.287 37.68 114.791 38.448C114.295 39.216 113.895 40.136 113.591 41.208C113.287 42.28 113.135 43.224 113.135 44.04C113.135 44.808 113.223 45.328 113.399 45.6C113.575 45.856 113.895 45.984 114.359 45.984ZM123.946 48.144C122.762 48.144 121.826 47.84 121.138 47.232C120.45 46.624 120.106 45.664 120.106 44.352C120.106 43.264 120.33 42.056 120.778 40.728C121.226 39.4 121.946 38.256 122.938 37.296C123.93 36.32 125.178 35.832 126.682 35.832C128.73 35.832 129.754 37.112 129.754 39.672V39.696C129.802 39.712 129.89 39.72 130.018 39.72C130.546 39.72 131.154 39.584 131.842 39.312C132.53 39.024 133.154 38.68 133.714 38.28L133.93 38.928C133.466 39.424 132.858 39.848 132.106 40.2C131.37 40.536 130.562 40.776 129.682 40.92C129.554 42.376 129.226 43.648 128.698 44.736C128.17 45.824 127.49 46.664 126.658 47.256C125.826 47.848 124.922 48.144 123.946 48.144ZM124.906 45.984C125.29 45.984 125.674 45.768 126.058 45.336C126.442 44.888 126.778 44.288 127.066 43.536C127.354 42.768 127.562 41.92 127.69 40.992C127.258 40.896 127.042 40.56 127.042 39.984C127.042 39.328 127.29 38.896 127.786 38.688C127.754 38.16 127.674 37.8 127.546 37.608C127.418 37.4 127.194 37.296 126.874 37.296C126.346 37.296 125.834 37.68 125.338 38.448C124.842 39.216 124.442 40.136 124.138 41.208C123.834 42.28 123.682 43.224 123.682 44.04C123.682 44.808 123.77 45.328 123.946 45.6C124.122 45.856 124.442 45.984 124.906 45.984ZM133.869 48.192C132.957 48.192 132.197 47.88 131.589 47.256C130.981 46.632 130.677 45.656 130.677 44.328C130.677 43.144 130.909 41.904 131.373 40.608C131.853 39.296 132.557 38.192 133.485 37.296C134.429 36.384 135.549 35.928 136.845 35.928C137.501 35.928 137.989 36.04 138.309 36.264C138.629 36.488 138.789 36.784 138.789 37.152V37.248L139.965 31.728L143.517 31.248L140.757 44.208C140.693 44.448 140.661 44.68 140.661 44.904C140.661 45.544 140.989 45.864 141.645 45.864C141.933 45.864 142.189 45.816 142.413 45.72C142.349 46.52 142.061 47.136 141.549 47.568C141.053 47.984 140.461 48.192 139.773 48.192C139.133 48.192 138.589 48.032 138.141 47.712C137.709 47.376 137.421 46.872 137.277 46.2C136.317 47.528 135.181 48.192 133.869 48.192ZM135.429 45.864C135.781 45.864 136.133 45.712 136.485 45.408C136.853 45.104 137.125 44.68 137.301 44.136L137.397 43.752L138.573 38.256C138.429 37.696 138.101 37.416 137.589 37.416C136.949 37.416 136.373 37.792 135.861 38.544C135.349 39.28 134.949 40.176 134.661 41.232C134.373 42.272 134.229 43.192 134.229 43.992C134.229 44.792 134.341 45.304 134.565 45.528C134.805 45.752 135.093 45.864 135.429 45.864Z" fill="white"/>
</svg>
